<svg xmlns="http://www.w3.org/2000/svg" viewBox="0 0 25.51 27.79"><defs><style>.cls-1{fill:#77c47c;}.cls-2{fill:#f5eb14;}.cls-3{fill:#c33;}.cls-4{fill:#3e6e71;}.cls-5{fill:#fff;}.cls-6{fill:#3f6e71;}</style></defs><title>Asset 1</title><g id="Layer_2" data-name="Layer 2"><g id="Layer_1-2" data-name="Layer 1"><circle class="cls-1" cx="6.5" cy="6.5" r="6.5"/><polygon class="cls-1" points="6.58 7.16 0.85 23 12.32 23 6.58 7.16"/><circle class="cls-2" cx="10.5" cy="6.5" r="6.5"/><polygon class="cls-2" points="10.58 7.16 4.85 23 16.32 23 10.58 7.16"/><circle class="cls-3" cx="14.5" cy="6.5" r="6.5"/><polygon class="cls-3" points="14.58 7.16 8.85 23 20.32 23 14.58 7.16"/><circle class="cls-4" cx="18.5" cy="6.5" r="6.5"/><polygon class="cls-4" points="18.58 7.16 12.85 23 24.32 23 18.58 7.16"/><path class="cls-5" d="M14.47,19.15h.82l1.32,2.72-.06.07V19.15h.64V22.7h-.83L15.05,20l.06-.06V22.7h-.64Z"/><path class="cls-5" d="M18.24,22.74,18,22.6a.84.84,0,0,1-.39-.38,1.32,1.32,0,0,1-.14-.62v-.28a1.38,1.38,0,0,1,.13-.64,1,1,0,0,1,.38-.41,1.28,1.28,0,0,1,.61-.14,1,1,0,0,1,.57.17,1.13,1.13,0,0,1,.36.48,2.13,2.13,0,0,1,.12.76v.17H17.89v-.45H19V21.2a.56.56,0,0,0-.14-.34.37.37,0,0,0-.29-.12.52.52,0,0,0-.38.14.58.58,0,0,0-.13.41v.32a.54.54,0,0,0,.14.4.55.55,0,0,0,.41.14.84.84,0,0,0,.27,0,1,1,0,0,0,.24-.14l.43.39a1.57,1.57,0,0,1-.44.28,1.27,1.27,0,0,1-.5.1Z"/><path class="cls-5" d="M19.49,20.17h.64l.45,1.56.54-1.56h.39l.54,1.56.45-1.56h.64l-.78,2.53h-.5l-.54-1.65-.55,1.65h-.5Z"/><path class="cls-6" d="M13.12,26.8l-.29-.16a1,1,0,0,1-.44-.45,1.52,1.52,0,0,1-.15-.71v-1a1.52,1.52,0,0,1,.15-.71,1.09,1.09,0,0,1,.44-.46,1.51,1.51,0,0,1,.7-.15,1.15,1.15,0,0,1,.59.14,1.26,1.26,0,0,1,.44.42,2,2,0,0,1,.24.66h-.7a.79.79,0,0,0-.12-.3.69.69,0,0,0-.19-.19.58.58,0,0,0-.26-.06.61.61,0,0,0-.32.07.52.52,0,0,0-.21.23.91.91,0,0,0-.07.35v1a1,1,0,0,0,.07.35.5.5,0,0,0,.21.22.61.61,0,0,0,.32.08.58.58,0,0,0,.26-.06.72.72,0,0,0,.2-.19,1,1,0,0,0,.11-.31h.7a2.12,2.12,0,0,1-.24.67,1.16,1.16,0,0,1-1,.56Z"/><path class="cls-6" d="M15.39,26.67a.85.85,0,0,1-.37-.38,1.2,1.2,0,0,1-.13-.59v-.42a1.22,1.22,0,0,1,.13-.59.88.88,0,0,1,.37-.37,1.22,1.22,0,0,1,.59-.13,1.24,1.24,0,0,1,.6.13.94.94,0,0,1,.37.37,1.22,1.22,0,0,1,.13.59v.42a1.26,1.26,0,0,1-.13.6.94.94,0,0,1-.37.37,1.24,1.24,0,0,1-.6.13A1.22,1.22,0,0,1,15.39,26.67ZM16.3,26a.5.5,0,0,0,.11-.34v-.42A.49.49,0,0,0,16.3,25a.46.46,0,0,0-.32-.11.43.43,0,0,0-.31.11.49.49,0,0,0-.11.33v.42a.5.5,0,0,0,.11.34.4.4,0,0,0,.31.12A.42.42,0,0,0,16.3,26Z"/><path class="cls-6" d="M17.29,24.23H18v2.53h-.67Zm1.48,1.07a.5.5,0,0,0-.11-.34.4.4,0,0,0-.31-.12.39.39,0,0,0-.29.1.44.44,0,0,0-.1.29l-.05-.56a1,1,0,0,1,.28-.36.68.68,0,0,1,.4-.12.86.86,0,0,1,.46.13.81.81,0,0,1,.29.38,1.57,1.57,0,0,1,.1.6v1.46h-.67Zm1.48,0a.5.5,0,0,0-.11-.34.38.38,0,0,0-.3-.12.41.41,0,0,0-.3.11.48.48,0,0,0-.1.33l-.13-.58a.93.93,0,0,1,.32-.38.77.77,0,0,1,.42-.13.89.89,0,0,1,.47.13.75.75,0,0,1,.29.38,1.57,1.57,0,0,1,.11.6v1.46h-.67Z"/><path class="cls-6" d="M21.18,24.23h.67v3.56h-.67Zm.87,2.46a.75.75,0,0,1-.23-.32l0-.58a.46.46,0,0,0,0,.21.33.33,0,0,0,.13.13.46.46,0,0,0,.21.05.37.37,0,0,0,.29-.12.57.57,0,0,0,.1-.36v-.4a.57.57,0,0,0-.1-.36.35.35,0,0,0-.29-.13.46.46,0,0,0-.21.05.35.35,0,0,0-.13.14.48.48,0,0,0,0,.22l-.05-.56a.89.89,0,0,1,.27-.35.61.61,0,0,1,.37-.12.86.86,0,0,1,.46.13.81.81,0,0,1,.29.38,1.57,1.57,0,0,1,.1.6v.4a1.57,1.57,0,0,1-.1.6.83.83,0,0,1-.29.37.78.78,0,0,1-.46.13A.71.71,0,0,1,22.05,26.69Z"/><path class="cls-6" d="M23.58,26.61a.81.81,0,0,1-.2-.59.72.72,0,0,1,.23-.57,1.08,1.08,0,0,1,.68-.19h.63l0,.51h-.67a.37.37,0,0,0-.23.06A.22.22,0,0,0,24,26a.2.2,0,0,0,.09.18.55.55,0,0,0,.29.06,1,1,0,0,0,.4-.06A.19.19,0,0,0,24.9,26l.05.37a.32.32,0,0,1-.13.23.69.69,0,0,1-.27.14,1.36,1.36,0,0,1-.36.05A.91.91,0,0,1,23.58,26.61Zm1.32-1.45a.32.32,0,0,0-.12-.27.48.48,0,0,0-.33-.1.92.92,0,0,0-.28.05.75.75,0,0,0-.25.13l-.41-.41a.89.89,0,0,1,.4-.27,1.38,1.38,0,0,1,.55-.1,1.41,1.41,0,0,1,.57.11.8.8,0,0,1,.35.33.91.91,0,0,1,.13.5v1.63H24.9Z"/></g></g></svg>